<svg xmlns:mydata="http://www.w3.org/2000/svg" mydata:contrastcolor="00677F" mydata:template="InvertedHex1" mydata:presentation="2.5" mydata:layouttype="undefined" mydata:specialfontid="undefined" mydata:id1="025" mydata:id2="240" mydata:companyname="Musea" mydata:companytagline="Galeria de arte" version="1.1" xmlns="http://www.w3.org/2000/svg" xmlns:xlink="http://www.w3.org/1999/xlink" viewBox="0 0 550 470" width="550"  height="470" ><g fill="#F1B434" fill-rule="none" stroke="none" stroke-width="1" stroke-linecap="butt" stroke-linejoin="miter" stroke-miterlimit="10" stroke-dasharray="" stroke-dashoffset="0" font-family="none" font-weight="none" font-size="none" text-anchor="none" style="mix-blend-mode: normal"><g data-paper-data="{&quot;isGlobalGroup&quot;:true,&quot;bounds&quot;:{&quot;x&quot;:64.99999999999999,&quot;y&quot;:180.59784922969618,&quot;width&quot;:419.99999999999994,&quot;height&quot;:108.80430154060764}}" fill="#F1B434"><g data-paper-data="{&quot;isSecondaryText&quot;:true}" fill-rule="nonzero" fill="#F1B434"><path d="M225.57899,268.6847v0h-4.0341v3.23724h3.73527c-0.22412,0.57274 -0.94627,1.3198 -1.12058,1.49411c-0.92137,0.89647 -2.14156,1.4194 -3.43645,1.4194c-1.2949,0 -2.51508,-0.52294 -3.41155,-1.4194c-0.92137,-0.92137 -1.44431,-2.14156 -1.44431,-3.43645c0,-1.2949 0.52294,-2.51508 1.44431,-3.43645c0.89647,-0.92137 2.11666,-1.4194 3.41155,-1.4194c1.07078,0 2.09175,0.34863 2.93842,0.97117v0l2.49018,-2.46528c-1.46921,-1.24509 -3.36175,-1.99215 -5.4286,-1.99215c-4.60684,0 -8.34211,3.73527 -8.34211,8.34211c0,4.60684 3.73527,8.34211 8.34211,8.34211c1.81783,0 3.48626,-0.57274 4.85586,-1.54391v1.2949h3.23724v-9.38799zM225.55409,271.92194h0.0249v0.0249z" data-paper-data="{&quot;glyphName&quot;:&quot;G&quot;,&quot;glyphIndex&quot;:0,&quot;firstGlyphOfWord&quot;:true,&quot;word&quot;:1}" fill="#F1B434"></path><path d="M247.4511,278.07269h4.48233l-8.69074,-16.18619v0v0v0v0l-8.71564,16.18619h4.48233l1.17039,-2.26607h6.10095zM241.74858,272.7686l1.49411,-2.83881l1.46921,2.83881z" data-paper-data="{&quot;glyphName&quot;:&quot;A&quot;,&quot;glyphIndex&quot;:1,&quot;word&quot;:1}" fill="#F1B434"></path><path d="M261.62854,274.58644v0v-12.69993h-3.88469v16.18619h3.85978h0.0249h7.79427v-3.48626z" data-paper-data="{&quot;glyphName&quot;:&quot;L&quot;,&quot;glyphIndex&quot;:2,&quot;word&quot;:1}" fill="#F1B434"></path><path d="M279.54126,271.72273h6.30016v-3.48626h-6.30016v-2.86371h7.42075v-3.48626h-11.30543v16.18619h11.30543v-3.48626h-7.42075z" data-paper-data="{&quot;glyphName&quot;:&quot;E&quot;,&quot;glyphIndex&quot;:3,&quot;word&quot;:1}" fill="#F1B434"></path><path d="M307.16569,267.41471c0,-2.49018 -1.79293,-5.52821 -5.77722,-5.52821c-2.31587,0 -3.38665,0 -3.85978,0v0h-3.88469v16.18619h3.88469v-5.15468c0.54784,0 1.17039,0 1.84274,0l3.38665,5.15468h4.35782l-3.48626,-5.52821c2.56489,-0.89647 3.53606,-3.31194 3.53606,-5.12978zM297.52868,265.37276h3.85978c0.82176,0 1.3945,0.19921 1.76803,0.64745c0.39843,0.42333 0.52294,0.99607 0.52294,1.3945c0,0.37353 -0.12451,0.94627 -0.47313,1.3696c-0.14941,0.17431 -0.34863,0.29882 -0.57274,0.42333c-0.32372,0.14941 -0.77196,0.22412 -1.26999,0.22412h-3.83488z" data-paper-data="{&quot;glyphName&quot;:&quot;R&quot;,&quot;glyphIndex&quot;:4,&quot;word&quot;:1}" fill="#F1B434"></path><path d="M313.47415,261.8865v16.18619h3.88469v-16.18619z" data-paper-data="{&quot;glyphName&quot;:&quot;I&quot;,&quot;glyphIndex&quot;:5,&quot;word&quot;:1}" fill="#F1B434"></path><path d="M336.09331,278.07269h4.48233l-8.69074,-16.18619v0v0v0v0l-8.71564,16.18619h4.48233l1.17039,-2.26607h6.10095zM330.3908,272.7686l1.49411,-2.83881l1.46921,2.83881z" data-paper-data="{&quot;glyphName&quot;:&quot;A&quot;,&quot;glyphIndex&quot;:6,&quot;lastGlyphOfWord&quot;:true,&quot;word&quot;:1}" fill="#F1B434"></path><path d="M364.57271,261.98611h-6.10095v0h-0.0498v16.18619h0.19921v0h5.95154c4.45743,0 8.09309,-3.63567 8.09309,-8.09309c0,-4.48233 -3.63567,-8.09309 -8.09309,-8.09309zM367.66053,273.16703c-0.82176,0.82176 -1.91744,1.26999 -3.08783,1.26999h-2.26607v-8.74054h2.24116v0c1.17039,0 2.29097,0.44823 3.11273,1.26999c0.82176,0.84666 1.26999,1.94234 1.26999,3.11273c0,1.17039 -0.44823,2.26607 -1.26999,3.08783z" data-paper-data="{&quot;glyphName&quot;:&quot;D&quot;,&quot;glyphIndex&quot;:7,&quot;firstGlyphOfWord&quot;:true,&quot;word&quot;:2}" fill="#F1B434"></path><path d="M383.23248,271.72273h6.30016v-3.48626h-6.30016v-2.86371h7.42075v-3.48626h-11.30543v16.18619h11.30543v-3.48626h-7.42075z" data-paper-data="{&quot;glyphName&quot;:&quot;E&quot;,&quot;glyphIndex&quot;:8,&quot;lastGlyphOfWord&quot;:true,&quot;word&quot;:2}" fill="#F1B434"></path><path d="M417.78792,278.07269h4.48233l-8.69074,-16.18619v0v0v0v0l-8.71564,16.18619h4.48233l1.17039,-2.26607h6.10095zM412.0854,272.7686l1.49411,-2.83881l1.46921,2.83881z" data-paper-data="{&quot;glyphName&quot;:&quot;A&quot;,&quot;glyphIndex&quot;:9,&quot;firstGlyphOfWord&quot;:true,&quot;word&quot;:3}" fill="#F1B434"></path><path d="M441.9759,267.41471c0,-2.49018 -1.79293,-5.52821 -5.77722,-5.52821c-2.31587,0 -3.38665,0 -3.85978,0v0h-3.88469v16.18619h3.88469v-5.15468c0.54784,0 1.17039,0 1.84274,0l3.38665,5.15468h4.35782l-3.48626,-5.52821c2.56489,-0.89647 3.53606,-3.31194 3.53606,-5.12978zM432.33889,265.37276h3.85978c0.82176,0 1.3945,0.19921 1.76803,0.64745c0.39843,0.42333 0.52294,0.99607 0.52294,1.3945c0,0.37353 -0.12451,0.94627 -0.47313,1.3696c-0.14941,0.17431 -0.34863,0.29882 -0.57274,0.42333c-0.32372,0.14941 -0.77196,0.22412 -1.26999,0.22412h-3.83488z" data-paper-data="{&quot;glyphName&quot;:&quot;R&quot;,&quot;glyphIndex&quot;:10,&quot;word&quot;:3}" fill="#F1B434"></path><path d="M460.21234,265.77119v-3.88469h-12.3015v3.88469h4.20841v12.3015h3.88469v-12.3015z" data-paper-data="{&quot;glyphName&quot;:&quot;T&quot;,&quot;glyphIndex&quot;:11,&quot;word&quot;:3}" fill="#F1B434"></path><path d="M470.5549,271.72273h6.30016v-3.48626h-6.30016v-2.86371h7.42075v-3.48626h-11.30543v16.18619h11.30543v-3.48626h-7.42075z" data-paper-data="{&quot;glyphName&quot;:&quot;E&quot;,&quot;glyphIndex&quot;:12,&quot;lastGlyphOfWord&quot;:true,&quot;word&quot;:3}" fill="#F1B434"></path></g><g data-paper-data="{&quot;isPrimaryText&quot;:true}" fill-rule="nonzero" fill="#F1B434"><path d="M261.84491,249.25101h4.29768v-56.76183h-5.35183l-21.48841,33.08404l-21.73167,-33.08404c-2.1083,0 -3.08136,0 -5.18965,0v56.76183h4.37877v-50.43694l21.89385,33.24622h1.45959l21.73167,-33.24622z" data-paper-data="{&quot;glyphName&quot;:&quot;M&quot;,&quot;glyphIndex&quot;:0,&quot;firstGlyphOfWord&quot;:true,&quot;word&quot;:1}" fill="#F1B434"></path><path d="M317.79586,192.48917v35.27343c0,24.3265 -34.86798,24.40759 -34.86798,0v-35.27343h-4.29768v35.27343c0,29.75942 43.46335,29.67833 43.46335,0v-35.27343z" data-paper-data="{&quot;glyphName&quot;:&quot;U&quot;,&quot;glyphIndex&quot;:1,&quot;word&quot;:1}" fill="#F1B434"></path><path d="M374.39551,201.3278c-5.5951,-8.3521 -12.64978,-9.64951 -20.75861,-9.64951c-9.32516,0 -21.81276,3.73006 -21.5695,15.73114c0,10.4604 10.62257,12.56869 21.00188,14.5959c9.32516,1.78394 18.73141,3.64898 18.65032,12.16325c0,10.05495 -11.1091,12.00107 -18.0827,12.00107c-6.9736,0 -15.89331,-3.40571 -19.38011,-10.29822l-3.89224,1.94612c4.37877,8.67645 14.43372,12.32543 23.27235,12.32543c9.48734,0 22.38038,-3.08136 22.46147,-15.89331c0,-12.24434 -11.35237,-14.19046 -22.29929,-16.29876c-9.56842,-1.78394 -17.3529,-3.4868 -17.3529,-10.70366c0,-9.08189 10.54148,-11.51454 17.19073,-11.51454c6.40598,0.08109 13.05522,1.05415 17.19073,7.70339z" data-paper-data="{&quot;glyphName&quot;:&quot;S&quot;,&quot;glyphIndex&quot;:2,&quot;word&quot;:1}" fill="#F1B434"></path><path d="M389.64012,196.62468h34.86798v-4.13551h-39.16567v56.76183h40.13873v-4.21659h-35.84104v-22.38038h33.24622v-3.97333h-33.24622z" data-paper-data="{&quot;glyphName&quot;:&quot;E&quot;,&quot;glyphIndex&quot;:3,&quot;word&quot;:1}" fill="#F1B434"></path><path d="M485,249.25101l-25.46174,-56.76183h-4.78421l-25.46174,56.76183h4.70312l6.16271,-13.94719h33.89492l6.2438,13.94719zM441.86101,231.2494l15.24461,-34.54363l15.24461,34.54363z" data-paper-data="{&quot;glyphName&quot;:&quot;A&quot;,&quot;glyphIndex&quot;:4,&quot;lastGlyphOfWord&quot;:true,&quot;word&quot;:1}" fill="#F1B434"></path></g><g data-paper-data="{&quot;fillRule&quot;:&quot;evenodd&quot;,&quot;fillRuleOriginal&quot;:&quot;evenodd&quot;,&quot;isIcon&quot;:true,&quot;iconStyle&quot;:&quot;standalone&quot;,&quot;selectedEffects&quot;:{&quot;container&quot;:&quot;&quot;,&quot;transformation&quot;:&quot;&quot;,&quot;pattern&quot;:&quot;&quot;},&quot;bounds&quot;:{&quot;x&quot;:64.99999999999999,&quot;y&quot;:180.59784922969618,&quot;width&quot;:109.74021548132937,&quot;height&quot;:108.80430154060764},&quot;iconType&quot;:&quot;icon&quot;,&quot;rawIconId&quot;:&quot;57c278cd-f1ac-4d2e-8550-0076994e424e&quot;,&quot;combineTerms&quot;:&quot;undefined&quot;,&quot;isDetailed&quot;:false,&quot;suitableAsStandaloneIcon&quot;:true}" fill-rule="evenodd" fill="#F1B434"><path d="M65,235c0,-30.04569 24.35668,-54.40215 54.40215,-54.40215c12.67075,0 24.32978,4.33175 33.5771,11.59527c-7.04228,-3.92123 -15.15262,-6.15516 -23.78469,-6.15516c-27.04095,0 -48.96194,21.9213 -48.96194,48.96205c0,27.04095 21.92098,48.96194 48.96194,48.96194c8.63208,0 16.74241,-2.23383 23.78469,-6.15494c-9.24732,7.26341 -20.90635,11.59516 -33.5771,11.59516c-30.04547,0 -54.40215,-24.35668 -54.40215,-54.40215zM174.74022,235c0,24.03639 -19.4856,43.52172 -43.52199,43.52172c-10.13659,0 -19.46381,-3.4654 -26.86157,-9.2761c5.6337,3.13687 12.12195,4.92391 19.02763,4.92391c21.63275,0 39.16937,-17.53677 39.16937,-39.16953c0,-21.63292 -17.53661,-39.16975 -39.16937,-39.16975c-6.90567,0 -13.39393,1.78737 -19.02763,4.92413c7.39776,-5.81082 16.72498,-9.27632 26.86157,-9.27632c24.03639,0 43.52199,19.4856 43.52199,43.52194zM139.62675,212.40239h0.19369c0.32282,0 0.64565,0 0.96847,0.12913c1.03303,0.19369 1.87238,0.71021 2.58258,1.48499c0.83934,0.9039 1.22673,1.93694 1.22673,3.22823v10.78229c-0.64565,-0.77477 -1.42042,-1.2913 -2.32433,-1.67868c-0.77477,-0.38739 -1.61412,-0.51651 -2.51802,-0.51651c-1.03303,0 -2.06607,0.19369 -2.96997,0.71021c-0.45195,0.25826 -1.09759,0.71021 -1.93694,1.48499c-0.77477,0.71021 -1.22673,1.16216 -1.35586,1.2913l-10.3949,9.29731c0,0 -0.06457,0.06457 -0.12913,0.06457v0.06457c-0.38739,0.25826 -0.77477,0.51651 -1.22673,0.71021c-0.58108,0.25826 -1.22673,0.38739 -1.87238,0.38739c-0.77477,0 -1.48499,-0.19369 -2.1952,-0.58108c-0.32282,-0.19369 -0.64565,-0.38739 -1.03303,-0.64565l-10.13664,-9.03905c-0.06457,-0.12913 -0.38739,-0.45195 -1.03303,-0.96847c-0.58108,-0.58108 -0.96847,-0.9039 -1.35586,-1.16216c-0.51651,-0.45195 -1.03303,-0.77477 -1.54955,-0.96847c-0.77477,-0.38739 -1.67868,-0.58108 -2.58258,-0.58108c-1.03303,0 -2.06607,0.25826 -3.03454,0.77477c-0.64565,0.38739 -1.2913,0.83934 -1.80781,1.48499v-11.16968c0.06457,-0.77477 0.25826,-1.42042 0.58108,-2.0015c0.38739,-0.64565 0.71021,-1.16216 1.22673,-1.54955c0.83934,-0.64565 1.74325,-0.96847 2.71171,-0.96847c0.12913,-0.06457 0.19369,-0.06457 0.25826,-0.06457c0.96847,0 1.87238,0.25826 2.71171,0.77477c0.38739,0.25826 0.77477,0.58108 1.22673,1.03303l16.01202,14.33335l16.27029,-14.5916c0.12913,-0.12913 0.25826,-0.19369 0.32282,-0.25826c0.38739,-0.38739 0.83934,-0.64565 1.2913,-0.83934c0.38739,-0.19369 0.83934,-0.32282 1.22673,-0.38739c0.25826,-0.06457 0.45195,-0.06457 0.64565,-0.06457zM136.39852,228.6081c0.96847,-0.9039 2.06607,-1.2913 3.35736,-1.2913c1.42042,0 2.64715,0.51651 3.55106,1.54955c0.83934,0.83934 1.2913,1.87238 1.2913,3.03454v20.85437c0,1.2913 -0.38739,2.38889 -1.2913,3.29279c-0.9039,1.03303 -2.13063,1.54955 -3.55106,1.54955c-1.35586,0 -2.51802,-0.51651 -3.48649,-1.42042c-0.9039,-0.96847 -1.35586,-2.13063 -1.35586,-3.42192v-20.78981c0,-1.35586 0.51651,-2.45346 1.48499,-3.35736zM96.56214,228.8018c0.96847,-0.96847 2.13063,-1.42042 3.42192,-1.42042c1.16216,0 2.1952,0.32282 3.0991,1.09759c1.16216,0.9039 1.74325,2.13063 1.74325,3.55106v20.72525c0,1.2913 -0.38739,2.38889 -1.2913,3.29279c-0.9039,1.03303 -2.13063,1.54955 -3.55106,1.54955c-1.2913,0 -2.45346,-0.51651 -3.48649,-1.42042c-0.9039,-0.96847 -1.35586,-2.13063 -1.35586,-3.42192v-20.72525c0.06457,-1.2913 0.51651,-2.38889 1.42042,-3.22823z" data-paper-data="{&quot;isPathIcon&quot;:true}" fill="#F1B434"></path></g></g></g><g class="watermark-group" style="opacity:0.040000010281801224"><path class="watermark-path" d="M129.52,370.3a11.88,11.88,0,0,1,2.58,5.58,12,12,0,0,1,.11,3,11.81,11.81,0,0,1-.64,2.93,12.34,12.34,0,0,1-1.41,2.72,11.65,11.65,0,0,1-2.13,2.32,12,12,0,0,1-2.64,1.69,13,13,0,0,1-2.91.9,12.47,12.47,0,0,1-3,.12,12.17,12.17,0,0,1-2.93-.64,11.8,11.8,0,0,1-2.72-1.38,12.19,12.19,0,0,1-4-4.79,11.85,11.85,0,0,1-.89-2.92,12.14,12.14,0,0,1-.13-3,11.54,11.54,0,0,1,.64-2.92,11.67,11.67,0,0,1,3.5-5,11.44,11.44,0,0,1,2.67-1.69,11.64,11.64,0,0,1,2.92-.91,10.71,10.71,0,0,1,3-.12,11.68,11.68,0,0,1,5.66,2,11.7,11.7,0,0,1,2.34,2.12m-1.4,8.76a13,13,0,0,1-1.22,2.32,9.68,9.68,0,0,1-1.81,2,7.44,7.44,0,0,1-2.38,1.37,6.17,6.17,0,0,1-5.11-.46,8.73,8.73,0,0,1-3.85-4.58,6.69,6.69,0,0,1-.34-2.66,6.09,6.09,0,0,1,.77-2.47,7.15,7.15,0,0,1,1.75-2.11,9.58,9.58,0,0,1,1.09-.81,8.23,8.23,0,0,1,1.12-.63,8.14,8.14,0,0,1,1.19-.46,12.71,12.71,0,0,1,1.32-.37l2,2.38a12.83,12.83,0,0,0-1.56.17,7.86,7.86,0,0,0-1.23.32,4.5,4.5,0,0,0-1,.49,6.41,6.41,0,0,0-.93.67,4.49,4.49,0,0,0-1.15,1.39,3.87,3.87,0,0,0-.45,1.58,4.12,4.12,0,0,0,.26,1.63,6.11,6.11,0,0,0,2.36,2.82,4.43,4.43,0,0,0,1.57.53,3.91,3.91,0,0,0,1.62-.17,4.71,4.71,0,0,0,1.57-.89,10.5,10.5,0,0,0,.83-.79,5.71,5.71,0,0,0,.65-.93,10.13,10.13,0,0,0,.54-1.14,12.24,12.24,0,0,0,.44-1.49l2,2.33m-14.46,4.55a8.86,8.86,0,0,0,2.78,2.22,9,9,0,0,0,3.29.94,9.15,9.15,0,0,0,3.39-.37,8.68,8.68,0,0,0,3.11-1.69,8.8,8.8,0,0,0,2.22-2.78,9.15,9.15,0,0,0,1-3.29,8.95,8.95,0,0,0-4.83-8.76,9,9,0,0,0-6.73-.57,9,9,0,0,0-5.33,4.47,8.94,8.94,0,0,0-.57,6.71,8.76,8.76,0,0,0,1.7,3.12"></path><path class="watermark-path" d="M147,349c-.48.12-1.09.31-1.82.57a24.37,24.37,0,0,0-2.4,1A28.35,28.35,0,0,0,140,352a20.72,20.72,0,0,0-2.71,1.94c-.7.59-1.28,1.11-1.74,1.57a15.07,15.07,0,0,0-1.1,1.22,4.09,4.09,0,0,0-.59.92,2.32,2.32,0,0,0-.22.64,1.16,1.16,0,0,0,0,.47,1.83,1.83,0,0,0,.18.29,1.15,1.15,0,0,0,1,.37,5.54,5.54,0,0,0,1.51-.38q.87-.35,1.95-.9l2.26-1.18q1.2-.65,2.49-1.29c.87-.44,1.73-.83,2.59-1.17a18.94,18.94,0,0,1,2.6-.81,9.27,9.27,0,0,1,2.46-.29,6.25,6.25,0,0,1,2.24.49,5.12,5.12,0,0,1,1.89,1.47,6.35,6.35,0,0,1,1.41,2.61,6,6,0,0,1,.09,2.6,8.3,8.3,0,0,1-.9,2.52,17.79,17.79,0,0,1-1.62,2.37,23.92,23.92,0,0,1-2,2.15c-.72.67-1.41,1.29-2.09,1.87a33.79,33.79,0,0,1-5.33,3.7,32.29,32.29,0,0,1-4.91,2.28l-3.61-4.3a21.38,21.38,0,0,0,5.39-1.87,27.2,27.2,0,0,0,5.4-3.56,21.59,21.59,0,0,0,2.38-2.27,8.67,8.67,0,0,0,1.18-1.7,2.32,2.32,0,0,0,.27-1.19,1.34,1.34,0,0,0-.28-.74,1.21,1.21,0,0,0-1-.42,4.32,4.32,0,0,0-1.55.34,15.77,15.77,0,0,0-2,.88c-.72.37-1.48.77-2.27,1.21l-2.45,1.3c-.85.45-1.7.85-2.56,1.21a22.37,22.37,0,0,1-2.54.86,10,10,0,0,1-2.43.32,5.76,5.76,0,0,1-2.2-.45,5,5,0,0,1-1.89-1.45,6.12,6.12,0,0,1-1.31-2.41,6,6,0,0,1-.1-2.41,8.28,8.28,0,0,1,.81-2.38,14.06,14.06,0,0,1,1.49-2.24,22.37,22.37,0,0,1,1.85-2.05q1-1,2-1.77c.7-.59,1.44-1.15,2.23-1.7s1.62-1.06,2.44-1.53,1.63-.91,2.43-1.3,1.58-.75,2.3-1L147,349"></path><path class="watermark-path" d="M186.76,337.57l-10.6-12.63,3.92,18.24-4.66,3.91-17.27-7,10.6,12.63-4.86,4.07-15.09-18,6.59-5.54,18.69,7.52-4.15-19.71,6.57-5.52,15.09,18-4.83,4.05"></path><path class="watermark-path" d="M208.84,313.24l-10,8.42,1.16,4.82L194.56,331l-5.68-25.89,5.42-4.55,24.51,10.09-5.42,4.55-4.55-2m-11.23,3.45,6.57-5.52-8.83-3.87,2.26,9.39"></path><path class="watermark-path" d="M227.49,281.38c-.48.12-1.09.31-1.82.57a24.37,24.37,0,0,0-2.4,1,26.11,26.11,0,0,0-2.7,1.47,20.72,20.72,0,0,0-2.71,1.94c-.7.59-1.28,1.11-1.74,1.57a13.39,13.39,0,0,0-1.1,1.22,4.29,4.29,0,0,0-.59.91,2.48,2.48,0,0,0-.22.65,1.16,1.16,0,0,0,0,.47,1.83,1.83,0,0,0,.18.29,1.15,1.15,0,0,0,1,.37,5.54,5.54,0,0,0,1.51-.38q.87-.34,2-.9l2.26-1.18q1.2-.64,2.49-1.29c.87-.44,1.73-.83,2.59-1.17a18.94,18.94,0,0,1,2.6-.81,9.27,9.27,0,0,1,2.46-.29,6.08,6.08,0,0,1,2.24.49,5.09,5.09,0,0,1,1.89,1.46,6.47,6.47,0,0,1,1.41,2.61,6.07,6.07,0,0,1,.09,2.61,8.3,8.3,0,0,1-.9,2.52,16.32,16.32,0,0,1-1.63,2.36,21.41,21.41,0,0,1-2,2.16c-.72.67-1.41,1.29-2.1,1.86a33.36,33.36,0,0,1-5.32,3.71,31.92,31.92,0,0,1-4.92,2.28l-3.6-4.3a21.38,21.38,0,0,0,5.39-1.87,27.2,27.2,0,0,0,5.4-3.56,21.59,21.59,0,0,0,2.38-2.27,8.67,8.67,0,0,0,1.18-1.7A2.32,2.32,0,0,0,231,293a1.34,1.34,0,0,0-.28-.74,1.21,1.21,0,0,0-1-.42,4.32,4.32,0,0,0-1.55.34,16.54,16.54,0,0,0-2,.88c-.71.37-1.47.77-2.26,1.21l-2.46,1.3c-.84.44-1.7.85-2.55,1.21a24.53,24.53,0,0,1-2.54.86A10,10,0,0,1,214,298a5.76,5.76,0,0,1-2.2-.45,5,5,0,0,1-1.89-1.45,6.12,6.12,0,0,1-1.31-2.41,5.78,5.78,0,0,1-.1-2.41,8,8,0,0,1,.81-2.38,14.61,14.61,0,0,1,1.49-2.25,22.26,22.26,0,0,1,1.85-2q1-1,2-1.77c.7-.59,1.44-1.15,2.23-1.7s1.62-1.06,2.44-1.53,1.63-.91,2.43-1.31,1.58-.74,2.3-1l3.5,4.16"></path><path class="watermark-path" d="M261.64,274.74l-6.29-7.5L243,277.61l6.3,7.5-4.86,4.07-15.09-18,4.85-4.08,5.49,6.55L252,263.3l-5.49-6.55,4.86-4.07,15.09,18-4.86,4.08"></path><path class="watermark-path" d="M272.18,265.9l-15.09-18,4.86-4.08,15.09,18-4.86,4.08"></path><path class="watermark-path" d="M299.65,242.85l-22.51-2.18L287.51,253l-4.85,4.08-15.1-18,5.28-4.43,22.56,2.22L285,224.5l4.83-4.06,15.09,18-5.26,4.42"></path><path class="watermark-path" d="M306.68,205.52a31.88,31.88,0,0,1,5.29-3.66,34.48,34.48,0,0,1,5.14-2.35l3.69,4.39a20.77,20.77,0,0,0-2.37.61,20.47,20.47,0,0,0-2.61,1,25.12,25.12,0,0,0-2.76,1.49,23.9,23.9,0,0,0-2.8,2,20.42,20.42,0,0,0-2.8,2.77,12.77,12.77,0,0,0-1.64,2.52,7,7,0,0,0-.68,2.24,6,6,0,0,0,.66,3.64,8.16,8.16,0,0,0,.94,1.38,9.12,9.12,0,0,0,1.08,1.07,6.39,6.39,0,0,0,1.47.91,6.73,6.73,0,0,0,1.88.48,6.54,6.54,0,0,0,2.28-.18,11.67,11.67,0,0,0,2.74-1.07,19.38,19.38,0,0,0,3.18-2.22c.57-.48,1.06-.92,1.46-1.31a14.57,14.57,0,0,0,1-1.13,11.46,11.46,0,0,0,.81-1.05l.74-1.09-1.82-2.17-5.45,4.57-3.31-3.94,10.31-8.65,7.71,9.19a29,29,0,0,1-1.67,2.43q-1,1.26-2.1,2.52c-.74.84-1.5,1.65-2.3,2.44s-1.58,1.5-2.33,2.14a31,31,0,0,1-3.59,2.61,22.55,22.55,0,0,1-3.64,1.83,15.64,15.64,0,0,1-3.63.89,10.72,10.72,0,0,1-3.49-.15,10.45,10.45,0,0,1-3.28-1.33,12.54,12.54,0,0,1-3-2.67,12,12,0,0,1-2.08-3.44,10.45,10.45,0,0,1-.71-3.5,11.14,11.14,0,0,1,.51-3.51,15.72,15.72,0,0,1,1.56-3.43,21.62,21.62,0,0,1,2.42-3.28,30.3,30.3,0,0,1,3.15-3"></path><path class="watermark-path" d="M336.91,211.59l-15.1-18,4.86-4.08,11.79,14,13.13-11,3.31,3.94-18,15.1"></path><path class="watermark-path" d="M374.54,164.71a12.28,12.28,0,0,1,2.59,4.81,10.44,10.44,0,0,1,0,5,14.62,14.62,0,0,1-2.33,5,25.55,25.55,0,0,1-4.56,4.85,26.07,26.07,0,0,1-5.6,3.67,14.79,14.79,0,0,1-5.38,1.43,10.43,10.43,0,0,1-4.94-.89,13.24,13.24,0,0,1-6.87-8.18,10.48,10.48,0,0,1,0-5,14.51,14.51,0,0,1,2.36-5,25.23,25.23,0,0,1,4.57-4.89,25,25,0,0,1,5.59-3.64,14.45,14.45,0,0,1,5.35-1.43,10.31,10.31,0,0,1,4.93.92,12.22,12.22,0,0,1,4.28,3.38m-4.91,4.11a8.36,8.36,0,0,0-2-1.72,5.5,5.5,0,0,0-2.65-.85,7.72,7.72,0,0,0-3.32.57,14.49,14.49,0,0,0-4,2.52,16.72,16.72,0,0,0-2.38,2.4,10.15,10.15,0,0,0-1.39,2.24,6.71,6.71,0,0,0-.56,2.1,5.69,5.69,0,0,0,.1,1.9,6.21,6.21,0,0,0,.61,1.69,9.85,9.85,0,0,0,1,1.44,10.48,10.48,0,0,0,1.26,1.23,6.67,6.67,0,0,0,1.57.92,6.1,6.1,0,0,0,1.85.41,6.8,6.8,0,0,0,2.15-.2,11.06,11.06,0,0,0,2.45-1,17.67,17.67,0,0,0,2.77-1.94,14.39,14.39,0,0,0,3.18-3.52,7.74,7.74,0,0,0,1.14-3.17,5.54,5.54,0,0,0-.37-2.74,8.52,8.52,0,0,0-1.36-2.3"></path><path class="watermark-path" d="M382.66,141.76A32.3,32.3,0,0,1,388,138.1a34.12,34.12,0,0,1,5.15-2.35l3.69,4.4a19.62,19.62,0,0,0-2.37.6,22.08,22.08,0,0,0-2.61,1,26,26,0,0,0-2.77,1.49,23.9,23.9,0,0,0-2.8,2,21,21,0,0,0-2.8,2.78,13.19,13.19,0,0,0-1.64,2.51,7.29,7.29,0,0,0-.68,2.24,6.36,6.36,0,0,0,.06,2,5.8,5.8,0,0,0,.61,1.68,8.12,8.12,0,0,0,.93,1.38,9.16,9.16,0,0,0,1.08,1.08,6.56,6.56,0,0,0,1.48.9,6,6,0,0,0,1.87.48,6.76,6.76,0,0,0,2.28-.17,12,12,0,0,0,2.74-1.08,18.57,18.57,0,0,0,3.18-2.22c.58-.48,1.06-.92,1.46-1.31s.75-.77,1.05-1.12.57-.72.81-1.06l.73-1.09-1.82-2.17-5.45,4.57-3.3-3.94,10.3-8.65,7.71,9.19a29,29,0,0,1-1.67,2.43q-1,1.26-2.1,2.52c-.73.84-1.5,1.66-2.3,2.44s-1.57,1.5-2.33,2.14a31,31,0,0,1-3.59,2.61,22.15,22.15,0,0,1-3.64,1.83,15.56,15.56,0,0,1-3.62.89,11,11,0,0,1-3.49-.14,10.84,10.84,0,0,1-3.28-1.33,12.82,12.82,0,0,1-3-2.68,12.12,12.12,0,0,1-2.08-3.43A10.71,10.71,0,0,1,375,155a11.18,11.18,0,0,1,.51-3.51,15.51,15.51,0,0,1,1.57-3.43,21.44,21.44,0,0,1,2.42-3.28,30.19,30.19,0,0,1,3.14-3"></path><path class="watermark-path" d="M428.63,119.31a12.26,12.26,0,0,1,2.59,4.82,10.44,10.44,0,0,1,0,5,14.53,14.53,0,0,1-2.34,5,25.29,25.29,0,0,1-4.56,4.86,26,26,0,0,1-5.59,3.67,14.84,14.84,0,0,1-5.38,1.43,10.61,10.61,0,0,1-4.95-.89,12.15,12.15,0,0,1-4.3-3.37,12,12,0,0,1-2.56-4.81,10.48,10.48,0,0,1,0-5,14.39,14.39,0,0,1,2.35-5,27.89,27.89,0,0,1,10.16-8.53,14.49,14.49,0,0,1,5.36-1.43,10.27,10.27,0,0,1,4.92.92,12.21,12.21,0,0,1,4.28,3.37m-4.91,4.12a8.17,8.17,0,0,0-2-1.72,5.58,5.58,0,0,0-2.65-.86,7.86,7.86,0,0,0-3.31.58,14.49,14.49,0,0,0-4,2.52,16.21,16.21,0,0,0-2.38,2.4,9.85,9.85,0,0,0-1.4,2.24,7,7,0,0,0-.56,2.1,6,6,0,0,0,.1,1.9,6.23,6.23,0,0,0,.62,1.69,8.49,8.49,0,0,0,1,1.44,9.18,9.18,0,0,0,1.26,1.23,6.67,6.67,0,0,0,1.57.92,6,6,0,0,0,1.84.41,6.86,6.86,0,0,0,2.16-.2,11.26,11.26,0,0,0,2.45-1,17.62,17.62,0,0,0,2.76-1.94,14.67,14.67,0,0,0,3.19-3.52,7.71,7.71,0,0,0,1.13-3.17,5.53,5.53,0,0,0-.36-2.74,8.55,8.55,0,0,0-1.37-2.3"></path></g></svg>